<svg xmlns="http://www.w3.org/2000/svg" viewBox="0 0 52 52" width="512" height="512"><path d="M26 21.953c-2.232 0-4.047 1.815-4.047 4.047s1.815 4.047 4.047 4.047 4.047-1.815 4.047-4.047-1.815-4.047-4.047-4.047zm0 7.783c-2.06 0-3.736-1.676-3.736-3.736S23.94 22.264 26 22.264 29.736 23.94 29.736 26 28.06 29.736 26 29.736z" data-original="#000000" class="active-path" data-old_color="#000000" fill="#4997D0"/><path d="M27.511 24.489a.155.155 0 00-.22 0L26 25.779l-1.29-1.29a.155.155 0 10-.221.22L25.779 26l-1.29 1.291a.155.155 0 10.22.22L26 26.221l1.291 1.29a.155.155 0 00.22 0c.061-.06.061-.16 0-.22L26.221 26l1.29-1.29c.061-.062.061-.16 0-.221z" data-original="#000000" class="active-path" data-old_color="#000000" fill="#4997D0"/></svg>